<svg fill="none" height="24" viewBox="0 0 24 24" width="24" xmlns="http://www.w3.org/2000/svg"><g fill="#292d32"><path d="m8.39062 18.4907v-10.15999c0-.4.12-.79.34-1.12l2.72998-4.06c.43-.65 1.5-1.11 2.41-.77.98.33 1.63 1.43 1.42 2.41l-.52 3.27c-.04.3.04.57.21.78.17.19.42.31.69.31h4.11c.79 0 1.47.32 1.87.87999.38.54.45 1.24.2 1.95l-2.46 7.49c-.31 1.24-1.66 2.25-3 2.25h-3.9c-.67 0-1.61-.23-2.04-.66l-1.27998-.99c-.49-.37-.78-.96-.78-1.58z"/><path d="m5.21 6.37891h-1.03c-1.55 0-2.18.6-2.18 2.08v10.05999c0 1.48.63 2.08 2.18 2.08h1.03c1.55 0 2.18-.6 2.18-2.08v-10.05999c0-1.48-.63-2.08-2.18-2.08z"/></g></svg>